Coordinates
version=1
nRows=24
nColumns=38
inDegrees=no

Units are S.I. units (second, meters, Newtons, ...)
If the header above contains a line with 'inDegrees', this indicates whether rotational values are in degrees (yes) or radians (no).

endheader
time	pelvis_tilt	pelvis_list	pelvis_rotation	pelvis_tx	pelvis_ty	pelvis_tz	hip_flexion_r	hip_adduction_r	hip_rotation_r	knee_angle_r	ankle_angle_r	subtalar_angle_r	mtp_angle_r	hip_flexion_l	hip_adduction_l	hip_rotation_l	knee_angle_l	ankle_angle_l	subtalar_angle_l	mtp_angle_l	lumbar_extension	lumbar_bending	lumbar_rotation	arm_flex_r	arm_add_r	arm_rot_r	elbow_flex_r	pro_sup_r	wrist_flex_r	wrist_dev_r	arm_flex_l	arm_add_l	arm_rot_l	elbow_flex_l	pro_sup_l	wrist_flex_l	wrist_dev_l
1.17	0.109879	1.18005	1.57434	0.702757	0.811343	0.996838	0.744265	-0.0388601	-0.167497	0.00830019	-0.202549	0	0	0.0754814	-0.0144558	-0.174029	0.227153	-0.091378	0	0	0.297728	0.020061	-0.208179	-0.0743381	-0.172181	0.40481	0.19261	1.56726	0	0	-0.130029	-0.380987	0.0854514	1.12784	1.38211	0	0
1.18	0.121167	1.18317	1.56748	0.702871	0.82614	0.995642	0.744858	-0.0312882	-0.167306	0.0442385	-0.214957	0	0	0.0680524	-0.0225772	-0.177752	0.24866	-0.0926426	0	0	0.29548	0.0260752	-0.210476	-0.072394	-0.173301	0.40773	0.188377	1.5708	0	0	-0.125877	-0.377311	0.0927858	1.1185	1.38554	0	0
1.19	0.133852	1.18474	1.55976	0.702892	0.841255	0.994652	0.744713	-0.0236874	-0.166404	0.0706142	-0.237445	0	0	0.0636736	-0.031433	-0.179942	0.272556	-0.0973968	0	0	0.296049	0.032217	-0.213254	-0.0718587	-0.17523	0.412077	0.185966	1.5708	0	0	-0.123141	-0.372888	0.100669	1.10696	1.39043	0	0
1.2	0.14872	1.18344	1.54969	0.70285	0.856488	0.993909	0.746023	-0.0161907	-0.164372	0.0871876	-0.276018	0	0	0.0644056	-0.0412458	-0.178958	0.299568	-0.106301	0	0	0.300748	0.0394868	-0.216211	-0.072426	-0.177948	0.416263	0.184955	1.5708	0	0	-0.12148	-0.366938	0.10863	1.09199	1.39738	0	0
1.21	0.16447	1.18001	1.53768	0.70288	0.871719	0.993493	0.74872	-0.00907692	-0.159853	0.101644	-0.314459	0	0	0.0700475	-0.0515396	-0.175707	0.330869	-0.118816	0	0	0.307908	0.0476518	-0.218215	-0.0736114	-0.181131	0.418702	0.185278	1.5708	0	0	-0.120481	-0.359711	0.116381	1.07426	1.40524	0	0
1.22	0.182282	1.17617	1.52216	0.703051	0.886886	0.993508	0.750865	-0.00152899	-0.152925	0.120102	-0.334321	0	0	0.0787908	-0.0631101	-0.171194	0.36706	-0.133094	0	0	0.314881	0.0571038	-0.21834	-0.074836	-0.184242	0.418521	0.186896	1.5708	0	0	-0.119254	-0.351565	0.124408	1.05444	1.41226	0	0
1.23	0.202279	1.17129	1.50273	0.70337	0.901973	0.993849	0.75331	0.00699498	-0.142436	0.144093	-0.33236	0	0	0.0911096	-0.0761861	-0.166065	0.40815	-0.151254	0	0	0.322704	0.0679845	-0.215957	-0.0767058	-0.187753	0.417069	0.19032	1.5708	0	0	-0.117731	-0.342766	0.133607	1.03246	1.41887	0	0
1.24	0.222921	1.16514	1.48094	0.70384	0.916919	0.99445	0.757135	0.0165803	-0.125406	0.174654	-0.310092	0	0	0.107638	-0.0901481	-0.160056	0.454637	-0.174969	0	0	0.331775	0.0796881	-0.211109	-0.0794003	-0.19171	0.414652	0.195729	1.5708	0	0	-0.116176	-0.333481	0.143996	1.00847	1.424	0	0
1.25	0.243944	1.15927	1.45799	0.704426	0.931593	0.995369	0.760813	0.0272307	-0.103604	0.209354	-0.280464	0	0	0.127118	-0.104671	-0.151506	0.505885	-0.201724	0	0	0.339566	0.0918337	-0.205555	-0.0811316	-0.195731	0.412796	0.201966	1.5708	0	0	-0.11494	-0.324029	0.153941	0.983748	1.42527	0	0
1.26	0.264503	1.15396	1.43617	0.705052	0.945915	0.996456	0.763724	0.0382254	-0.080976	0.24452	-0.246285	0	0	0.149498	-0.11886	-0.138299	0.560385	-0.234143	0	0	0.345877	0.103224	-0.200192	-0.0821741	-0.199561	0.410906	0.209569	1.5708	0	0	-0.113406	-0.315745	0.165342	0.958927	1.42193	0	0
1.27	0.285128	1.15002	1.41622	0.705602	0.959835	0.997615	0.763814	0.0489272	-0.0639585	0.274525	-0.219837	0	0	0.173749	-0.132269	-0.118887	0.617345	-0.264496	0	0	0.349535	0.113227	-0.196973	-0.0813686	-0.202596	0.408919	0.217695	1.5708	0	0	-0.112542	-0.308058	0.174717	0.935628	1.41427	0	0
1.28	0.305025	1.14671	1.39965	0.705991	0.973369	0.998705	0.761066	0.0580599	-0.0577967	0.297388	-0.195866	0	0	0.200759	-0.14414	-0.0937255	0.676812	-0.295996	0	0	0.352154	0.121287	-0.195652	-0.0800349	-0.20544	0.406908	0.227354	1.5708	0	0	-0.111673	-0.301383	0.184338	0.91345	1.40212	0	0
1.29	0.327923	1.14559	1.38419	0.706092	0.986707	0.999846	0.7524	0.0653237	-0.0635184	0.312532	-0.174927	0	0	0.228495	-0.155461	-0.063894	0.737837	-0.328365	0	0	0.351837	0.128286	-0.197691	-0.0779395	-0.208309	0.405102	0.238599	1.5708	0	0	-0.110432	-0.295678	0.194564	0.892298	1.38593	0	0
1.3	0.353196	1.14674	1.36996	0.705845	0.999898	1.00105	0.737897	0.0706449	-0.0779254	0.320779	-0.154663	0	0	0.256244	-0.165864	-0.0321513	0.798367	-0.366289	0	0	0.348454	0.13417	-0.202389	-0.0755192	-0.211476	0.402011	0.252212	1.5708	0	0	-0.108381	-0.291537	0.207379	0.87216	1.36454	0	0
1.31	0.37827	1.14927	1.35765	0.705353	1.01295	1.00229	0.719499	0.0749071	-0.0951911	0.323009	-0.138188	0	0	0.283871	-0.174524	-0.000612422	0.856572	-0.405132	0	0	0.34328	0.138683	-0.208432	-0.0727437	-0.214872	0.397868	0.267305	1.5708	0	0	-0.1065	-0.288098	0.220574	0.853108	1.34127	0	0
1.32	0.40078	1.15233	1.34838	0.704709	1.02593	1.00362	0.699222	0.0784378	-0.112345	0.320625	-0.124321	0	0	0.311368	-0.180924	0.0285736	0.910893	-0.439885	0	0	0.337882	0.141564	-0.214408	-0.0700468	-0.218305	0.391892	0.283427	1.5708	0	0	-0.104638	-0.285202	0.234813	0.834045	1.31622	0	0
1.33	0.41813	1.15482	1.34309	0.704062	1.03885	1.00507	0.679241	0.0813365	-0.1278	0.315294	-0.113078	0	0	0.339222	-0.184859	0.0534899	0.960679	-0.459477	0	0	0.333916	0.142702	-0.21866	-0.0676012	-0.221545	0.384147	0.299523	1.5708	0	0	-0.102766	-0.282693	0.25068	0.813961	1.29119	0	0
1.34	0.42907	1.15718	1.34092	0.703574	1.05165	1.00678	0.659977	0.0837433	-0.139797	0.309183	-0.104745	0	0	0.366083	-0.186549	0.0721947	1.00443	-0.461068	0	0	0.330465	0.142211	-0.219581	-0.0644461	-0.224009	0.375198	0.314304	1.5708	0	0	-0.101088	-0.279676	0.265256	0.792401	1.27117	0	0
1.35	0.434748	1.1601	1.33942	0.703387	1.06423	1.0088	0.640954	0.0863352	-0.146711	0.303485	-0.0982593	0	0	0.390476	-0.187057	0.0838678	1.04294	-0.447334	0	0	0.325806	0.140968	-0.214931	-0.0609194	-0.22596	0.363698	0.329014	1.5708	0	0	-0.0983242	-0.277215	0.281323	0.770116	1.25487	0	0
1.36	0.43842	1.1626	1.33793	0.703416	1.07681	1.01101	0.621907	0.0892631	-0.150973	0.2967	-0.0942975	0	0	0.413819	-0.187406	0.0914951	1.07725	-0.421616	0	0	0.322019	0.139206	-0.207748	-0.0576101	-0.227391	0.350739	0.34305	1.5708	0	0	-0.0962438	-0.275282	0.29715	0.748882	1.2416	0	0
1.37	0.440373	1.16636	1.33685	0.703591	1.08955	1.01346	0.600856	0.0918716	-0.153111	0.288841	-0.0921672	0	0	0.434383	-0.187052	0.0957459	1.10733	-0.388687	0	0	0.317648	0.136314	-0.198637	-0.0547576	-0.228021	0.335976	0.356637	1.5708	0	0	-0.0954492	-0.273901	0.311419	0.729512	1.23198	0	0
1.38	0.438686	1.17134	1.33677	0.703931	1.10242	1.01605	0.578278	0.0941155	-0.153949	0.280152	-0.0911254	0	0	0.452053	-0.185693	0.0955045	1.13279	-0.352574	0	0	0.312781	0.132118	-0.186491	-0.0524406	-0.228363	0.320804	0.370214	1.5708	0	0	-0.0963553	-0.27309	0.323135	0.712417	1.22858	0	0
1.39	0.430667	1.17538	1.34072	0.704415	1.1152	1.01862	0.55722	0.0952491	-0.153748	0.271298	-0.0910861	0	0	0.469955	-0.18289	0.0907538	1.1529	-0.324481	0	0	0.310168	0.12582	-0.174062	-0.0486692	-0.22813	0.310444	0.381626	1.5708	0	0	-0.101225	-0.272638	0.328103	0.698623	1.23173	0	0
1.4	0.419428	1.1796	1.34682	0.704954	1.12788	1.0212	0.536014	0.0956809	-0.15274	0.2613	-0.0924661	0	0	0.486733	-0.17935	0.0832735	1.16782	-0.286891	0	0	0.307368	0.118617	-0.15773	-0.0483107	-0.228041	0.29273	0.396986	1.5708	0	0	-0.105275	-0.272483	0.33223	0.68579	1.24213	0	0
